<?xml version="1.0" standalone="no"?>
<!DOCTYPE svg PUBLIC "-//W3C//DTD SVG 20010904//EN"
 "http://www.w3.org/TR/2001/REC-SVG-20010904/DTD/svg10.dtd">
<svg version="1.0" xmlns="http://www.w3.org/2000/svg"
 width="1000.000000pt" height="1080.000000pt" viewBox="0 0 1000.000000 1080.000000"
 preserveAspectRatio="xMidYMid meet">

<g transform="translate(0.000000,1080.000000) scale(0.100000,-0.100000)"
fill="#000000" stroke="none">
<path d="M5036 9154 c-19 -19 -14 3 -37 -149 -35 -231 -58 -387 -78 -520 -11
-71 -25 -164 -32 -205 -11 -71 -14 -78 -68 -136 -159 -173 -241 -366 -241
-569 0 -183 57 -345 177 -502 l64 -85 -48 28 c-131 75 -268 192 -370 318 -17
21 -26 25 -40 18 -10 -5 -35 -12 -55 -16 -40 -7 -191 -52 -223 -66 -11 -5 -55
-23 -98 -40 -511 -199 -982 -606 -1269 -1095 -33 -57 -145 -290 -168 -350 -13
-33 -29 -73 -35 -90 -7 -16 -16 -46 -20 -65 -4 -19 -11 -39 -15 -45 -4 -5 -13
-37 -19 -70 -7 -33 -16 -69 -22 -80 -8 -18 -28 -126 -49 -269 -25 -175 -19
-626 10 -721 5 -16 15 -68 23 -115 24 -139 85 -346 135 -460 24 -56 141 -292
160 -325 179 -306 455 -597 748 -787 91 -60 223 -128 309 -162 39 -15 77 -30
85 -35 8 -4 56 -20 105 -35 50 -14 104 -31 121 -36 49 -16 208 -39 346 -51
295 -25 759 57 895 158 131 97 175 227 111 332 -28 45 -38 53 -118 93 l-65 33
-275 6 c-194 5 -300 11 -359 23 -78 15 -179 44 -226 65 -124 53 -161 72 -253
126 -106 62 -325 254 -292 256 8 0 525 0 1148 0 622 0 1132 1 1132 3 0 16 -22
115 -29 131 -64 146 -88 183 -176 270 -49 50 -117 107 -150 126 -33 19 -59 41
-57 48 22 103 23 373 2 476 -67 314 -170 506 -385 721 -176 176 -310 258 -560
343 -86 30 -273 59 -385 61 l-65 1 45 16 c34 11 94 15 240 16 171 2 207 -1
295 -21 96 -22 209 -58 230 -72 6 -4 21 -11 35 -15 39 -12 178 -94 245 -144
132 -99 249 -228 347 -383 38 -59 118 -222 118 -240 0 -5 7 -24 15 -41 42 -91
74 -286 74 -459 l1 -137 47 -38 c95 -77 223 -221 223 -250 0 -6 3 -13 8 -15
12 -5 60 -110 83 -183 12 -38 25 -77 29 -85 4 -9 11 -39 15 -67 3 -28 12 -53
18 -56 23 -8 776 -7 781 1 5 9 -18 112 -33 147 -76 176 -193 307 -347 389 -62
32 -62 35 -44 168 6 40 17 177 26 303 13 202 42 590 61 830 l6 80 79 84 c88
95 169 210 221 318 41 85 97 242 97 273 0 12 4 30 10 40 21 40 33 266 21 396
-14 147 -23 179 -49 169 -53 -23 -349 -81 -359 -71 -2 2 18 11 44 22 74 29
211 101 283 149 208 138 334 294 406 500 26 74 28 91 28 235 0 141 -3 162 -27
230 -45 131 -108 236 -205 341 l-61 66 -16 119 c-8 65 -20 139 -25 164 -6 25
-17 95 -26 155 -9 61 -25 166 -35 235 -11 69 -24 157 -30 195 -17 111 -34 119
-100 47 -39 -43 -151 -180 -204 -250 -11 -15 -54 -68 -95 -118 -41 -51 -86
-107 -100 -125 -54 -71 -51 -69 -100 -58 -72 15 -207 37 -315 50 -152 18 -458
0 -615 -37 -36 -8 -74 -17 -86 -19 -16 -4 -36 15 -94 87 -97 122 -87 109 -179
223 -239 297 -248 306 -275 279z m594 -1303 c19 -10 47 -36 62 -57 22 -32 27
-50 28 -100 0 -55 -3 -64 -37 -104 -57 -67 -133 -88 -206 -56 -58 25 -107 98
-107 160 0 65 50 144 104 166 38 16 120 11 156 -9z m1109 1 c86 -43 126 -155
83 -232 -50 -90 -155 -124 -241 -78 -121 65 -120 252 1 311 43 22 114 21 157
-1z"/>
</g>
</svg>
